<svg width="149" height="8" viewBox="0 0 149 8" fill="none" xmlns="http://www.w3.org/2000/svg">
  <path fill-rule="evenodd" clip-rule="evenodd"
    d="M148.442 2.54434C147.838 1.60124 142.649 1.20412 127.054 0.873212C112.502 0.558844 95.5622 -0.351151 65.9648 0.145219C43.3412 0.525769 15.1716 2.04799 15.1716 2.89181C15.1716 3.504 16.2699 3.52055 26.758 2.97454C36.4499 2.47817 41.4194 2.36235 47.4871 2.22999C23.1613 3.52055 17.9721 4.36435 5.01295 5.17508C-3.11397 5.688 1.63588 7.16058 4.60111 7.01167C4.62857 7.01167 42.4352 5.15854 46.0045 5.25781C46.3339 5.27436 42.7372 5.57218 37.9874 5.91964C24.7262 6.91238 27.2796 8.56693 37.2186 7.80583C70.6598 5.24125 102.124 4.44704 126.368 5.5556C134.028 5.90306 134.879 5.90306 134.879 5.47287C134.879 4.71177 132.792 4.13271 129.525 4.01689C124.418 3.81834 104.76 3.25577 95.8642 3.09031C95.1778 3.07377 95.5073 2.75945 96.1113 2.72636C99.7355 2.51126 128.509 2.67666 139.821 2.9083C148.14 3.07375 148.744 3.05726 148.442 2.54434Z"
    fill="#F7AF5A" />
</svg>