<svg width="50" height="42" viewBox="0 0 50 42" fill="none" xmlns="http://www.w3.org/2000/svg">
<path d="M22.5751 32.271C22.5751 29.631 21.8851 27.417 20.5051 25.62C19.5271 24.384 18.2011 23.571 16.5241 23.184C14.8741 22.8 13.3141 22.773 11.9041 23.1C11.4241 20.25 12.2041 17.232 14.1841 14.034C16.1641 10.839 18.7291 8.433 21.8581 6.825L17.1151 0C14.7151 1.188 12.4351 2.694 10.3351 4.515C8.20514 6.336 6.31514 8.43 4.63514 10.797C2.95514 13.164 1.69514 15.837 0.885137 18.867C0.0751369 21.897 -0.149863 24.987 0.237137 28.167C0.741137 32.367 2.09714 35.727 4.30514 38.217C6.51014 40.74 9.26114 42 12.5491 42C15.4441 42 17.8471 41.13 19.7491 39.366C21.6331 37.638 22.5691 35.271 22.5691 32.262L22.5751 32.271ZM49.9471 32.271C49.9471 29.631 49.2571 27.417 47.8771 25.62C46.8991 24.36 45.5671 23.544 43.8961 23.169C42.2161 22.797 40.6771 22.779 39.2761 23.103C38.7961 20.283 39.5461 17.253 41.5321 14.043C43.5121 10.863 46.0711 8.463 49.2001 6.843L44.4691 0C42.0691 1.188 39.8041 2.694 37.6891 4.515C35.5397 6.36298 33.6308 8.47348 32.0071 10.797C30.3391 13.167 29.0971 15.837 28.2871 18.867C27.4676 21.8952 27.2464 25.0542 27.6361 28.167C28.1341 32.367 29.4841 35.727 31.6861 38.217C33.8851 40.719 36.6271 41.973 39.9151 41.973C42.8161 41.973 45.2191 41.103 47.1211 39.342C49.0021 37.614 49.9471 35.247 49.9471 32.238V32.271Z" fill="#E9E9E9"/>
</svg>
