<svg width="50" height="42" viewBox="0 0 50 42" fill="none" xmlns="http://www.w3.org/2000/svg">
<path d="M27.4239 9.729C27.4239 12.369 28.1139 14.583 29.4939 16.38C30.4719 17.616 31.7979 18.429 33.4749 18.816C35.1249 19.2 36.6849 19.227 38.0949 18.9C38.5749 21.75 37.7949 24.768 35.8149 27.966C33.8349 31.161 31.2699 33.567 28.1409 35.175L32.8839 42C35.2839 40.812 37.5639 39.306 39.6639 37.485C41.7939 35.664 43.6839 33.57 45.3639 31.203C47.0439 28.836 48.3039 26.163 49.1139 23.133C49.9239 20.103 50.1489 17.013 49.7619 13.833C49.2579 9.633 47.9019 6.273 45.6939 3.783C43.4889 1.26 40.7379 -8.05024e-07 37.4499 -1.09247e-06C34.5549 -1.34556e-06 32.1519 0.869997 30.2499 2.634C28.3659 4.362 27.4299 6.729 27.4299 9.738L27.4239 9.729ZM0.0518903 9.729C0.0518901 12.369 0.741889 14.583 2.12189 16.38C3.09989 17.64 4.43189 18.456 6.10289 18.831C7.78289 19.203 9.32189 19.221 10.7229 18.897C11.2029 21.717 10.4529 24.747 8.46689 27.957C6.48689 31.137 3.92789 33.537 0.79889 35.157L5.52988 42C7.92989 40.812 10.1949 39.306 12.3099 37.485C14.4593 35.637 16.3682 33.5265 17.9919 31.203C19.6599 28.833 20.9019 26.163 21.7119 23.133C22.5315 20.1048 22.7526 16.9458 22.3629 13.833C21.8649 9.633 20.5149 6.273 18.3129 3.78299C16.1139 1.281 13.3719 0.0269972 10.0839 0.0269969C7.18289 0.0269967 4.77989 0.896995 2.87789 2.65799C0.996887 4.38599 0.0518906 6.75299 0.0518903 9.762L0.0518903 9.729Z" fill="#E9E9E9"/>
</svg>
