<svg width="22" height="22" viewBox="0 0 22 22" fill="none" xmlns="http://www.w3.org/2000/svg">
<path d="M11.0003 13.3334L2.83366 21.5001C2.5281 21.8056 2.13921 21.9584 1.66699 21.9584C1.19477 21.9584 0.805881 21.8056 0.500326 21.5001C0.19477 21.1945 0.0419922 20.8056 0.0419922 20.3334C0.0419922 19.8612 0.19477 19.4723 0.500326 19.1667L8.66699 11.0001L0.500326 2.83341C0.19477 2.52786 0.0419922 2.13897 0.0419922 1.66675C0.0419922 1.19453 0.19477 0.805637 0.500326 0.500081C0.805881 0.194526 1.19477 0.041748 1.66699 0.041748C2.13921 0.041748 2.5281 0.194526 2.83366 0.500081L11.0003 8.66675L19.167 0.500081C19.4725 0.194526 19.8614 0.041748 20.3337 0.041748C20.8059 0.041748 21.1948 0.194526 21.5003 0.500081C21.8059 0.805637 21.9587 1.19453 21.9587 1.66675C21.9587 2.13897 21.8059 2.52786 21.5003 2.83341L13.3337 11.0001L21.5003 19.1667C21.8059 19.4723 21.9587 19.8612 21.9587 20.3334C21.9587 20.8056 21.8059 21.1945 21.5003 21.5001C21.1948 21.8056 20.8059 21.9584 20.3337 21.9584C19.8614 21.9584 19.4725 21.8056 19.167 21.5001L11.0003 13.3334Z" fill="black"/>
</svg>
