<svg width="64" height="50" viewBox="0 0 64 50" fill="none" xmlns="http://www.w3.org/2000/svg">
<path d="M17.6178 17.3054L8.18414 25.0003L17.6178 32.6952C17.9306 32.9462 18.1897 33.2554 18.3799 33.6048C18.5701 33.9543 18.6877 34.3372 18.7261 34.7314C18.7644 35.1256 18.7226 35.5233 18.6031 35.9016C18.4836 36.2799 18.2889 36.6313 18.03 36.9356C17.7711 37.2398 17.4532 37.4909 17.0947 37.6743C16.7362 37.8577 16.3442 37.9698 15.9412 38.0042C15.5382 38.0385 15.1323 37.9945 14.7468 37.8745C14.3613 37.7545 14.0039 37.561 13.6952 37.3052L1.43706 27.3053C1.09182 27.0238 0.814047 26.6713 0.623422 26.273C0.432797 25.8747 0.333984 25.4402 0.333984 25.0003C0.333984 24.5604 0.432797 24.126 0.623422 23.7276C0.814047 23.3293 1.09182 22.9769 1.43706 22.6954L13.6952 12.6955C14.3205 12.1938 15.1231 11.9544 15.928 12.0293C16.7328 12.1043 17.4748 12.4876 17.9923 13.0958C18.5098 13.7039 18.7608 14.4876 18.6906 15.2761C18.6205 16.0646 18.2349 16.794 17.6178 17.3054ZM62.5642 22.6954L50.3061 12.6955C49.9974 12.4396 49.64 12.2461 49.2545 12.1262C48.869 12.0062 48.4631 11.9621 48.0601 11.9965C47.6571 12.0308 47.2651 12.1429 46.9066 12.3263C46.5481 12.5097 46.2302 12.7608 45.9713 13.0651C45.7124 13.3693 45.5177 13.7207 45.3982 14.0991C45.2787 14.4774 45.2369 14.8751 45.2752 15.2693C45.3136 15.6635 45.4312 16.0464 45.6214 16.3958C45.8116 16.7453 46.0707 17.0544 46.3835 17.3054L55.8172 25.0003L46.3835 32.6952C46.0707 32.9462 45.8116 33.2554 45.6214 33.6048C45.4312 33.9543 45.3136 34.3372 45.2752 34.7314C45.2369 35.1256 45.2787 35.5233 45.3982 35.9016C45.5177 36.2799 45.7124 36.6313 45.9713 36.9356C46.2302 37.2398 46.5481 37.4909 46.9066 37.6743C47.2651 37.8577 47.6571 37.9698 48.0601 38.0042C48.4631 38.0385 48.869 37.9945 49.2545 37.8745C49.64 37.7545 49.9974 37.561 50.3061 37.3052L62.5642 27.3053C62.9095 27.0238 63.1873 26.6713 63.3779 26.273C63.5685 25.8747 63.6673 25.4402 63.6673 25.0003C63.6673 24.5604 63.5685 24.126 63.3779 23.7276C63.1873 23.3293 62.9095 22.9769 62.5642 22.6954ZM41.2198 0.180644C40.8415 0.0459721 40.4398 -0.0144252 40.0377 0.00290183C39.6355 0.0202289 39.2408 0.114941 38.8761 0.281628C38.5113 0.448315 38.1837 0.683711 37.9119 0.97437C37.6401 1.26503 37.4295 1.60526 37.2921 1.97562L20.9479 45.975C20.6709 46.7226 20.7084 47.5473 21.0522 48.2678C21.396 48.9883 22.018 49.5457 22.7815 49.8175C23.1167 49.9387 23.4713 50.0005 23.8286 50C24.4578 50.0001 25.0717 49.8106 25.5871 49.4573C26.1025 49.104 26.4943 48.6039 26.7092 48.025L43.0534 4.02559C43.191 3.65528 43.2527 3.26205 43.235 2.86839C43.2173 2.47473 43.1205 2.08833 42.9502 1.73128C42.78 1.37423 42.5395 1.05351 42.2426 0.787447C41.9457 0.521385 41.5981 0.315191 41.2198 0.180644Z" fill="white"/>
</svg>
