<svg width="50" height="42" viewBox="0 0 50 42" fill="none" xmlns="http://www.w3.org/2000/svg">
<path d="M22.5761 32.271C22.5761 29.631 21.8861 27.417 20.5061 25.62C19.5281 24.384 18.2021 23.571 16.5251 23.184C14.8751 22.8 13.3151 22.773 11.9051 23.1C11.4251 20.25 12.2051 17.232 14.1851 14.034C16.1651 10.839 18.7301 8.433 21.8591 6.825L17.1161 0C14.7161 1.188 12.4361 2.694 10.3361 4.515C8.20611 6.336 6.31611 8.43 4.63611 10.797C2.95611 13.164 1.69611 15.837 0.886114 18.867C0.0761135 21.897 -0.148886 24.987 0.238114 28.167C0.742114 32.367 2.09811 35.727 4.30611 38.217C6.51111 40.74 9.26211 42 12.5501 42C15.4451 42 17.8481 41.13 19.7501 39.366C21.6341 37.638 22.5701 35.271 22.5701 32.262L22.5761 32.271ZM49.9481 32.271C49.9481 29.631 49.2581 27.417 47.8781 25.62C46.9001 24.36 45.5681 23.544 43.8971 23.169C42.2171 22.797 40.6781 22.779 39.2771 23.103C38.7971 20.283 39.5471 17.253 41.5331 14.043C43.5131 10.863 46.0721 8.463 49.2011 6.843L44.4701 0C42.0701 1.188 39.8051 2.694 37.6901 4.515C35.5407 6.36298 33.6318 8.47348 32.0081 10.797C30.3401 13.167 29.0981 15.837 28.2881 18.867C27.4685 21.8952 27.2474 25.0542 27.6371 28.167C28.1351 32.367 29.4851 35.727 31.6871 38.217C33.8861 40.719 36.6281 41.973 39.9161 41.973C42.8171 41.973 45.2201 41.103 47.1221 39.342C49.0031 37.614 49.9481 35.247 49.9481 32.238V32.271Z" fill="#E9E9E9"/>
</svg>
