<svg width="50" height="42" viewBox="0 0 50 42" fill="none" xmlns="http://www.w3.org/2000/svg">
<path d="M27.4249 9.729C27.4249 12.369 28.1149 14.583 29.4949 16.38C30.4729 17.616 31.7989 18.429 33.4759 18.816C35.1259 19.2 36.6859 19.227 38.0959 18.9C38.5759 21.75 37.7959 24.768 35.8159 27.966C33.8359 31.161 31.2709 33.567 28.1419 35.175L32.8849 42C35.2849 40.812 37.5649 39.306 39.6649 37.485C41.7949 35.664 43.6849 33.57 45.3649 31.203C47.0449 28.836 48.3049 26.163 49.1149 23.133C49.9249 20.103 50.1499 17.013 49.7629 13.833C49.2589 9.633 47.9029 6.273 45.6949 3.783C43.4899 1.26 40.7389 -8.05024e-07 37.4509 -1.09247e-06C34.5559 -1.34556e-06 32.1529 0.869997 30.2509 2.634C28.3669 4.362 27.4309 6.729 27.4309 9.738L27.4249 9.729ZM0.0528669 9.729C0.0528667 12.369 0.742865 14.583 2.12287 16.38C3.10087 17.64 4.43286 18.456 6.10386 18.831C7.78387 19.203 9.32286 19.221 10.7239 18.897C11.2039 21.717 10.4539 24.747 8.46787 27.957C6.48786 31.137 3.92886 33.537 0.799866 35.157L5.53086 42C7.93086 40.812 10.1959 39.306 12.3109 37.485C14.4603 35.637 16.3692 33.5265 17.9929 31.203C19.6609 28.833 20.9029 26.163 21.7129 23.133C22.5324 20.1048 22.7536 16.9458 22.3639 13.833C21.8659 9.633 20.5159 6.273 18.3139 3.78299C16.1149 1.281 13.3729 0.0269972 10.0849 0.0269969C7.18386 0.0269967 4.78086 0.896995 2.87886 2.65799C0.997863 4.38599 0.0528672 6.75299 0.0528669 9.762L0.0528669 9.729Z" fill="#E9E9E9"/>
</svg>
