<svg width="65" height="65" viewBox="0 0 65 65" fill="none" xmlns="http://www.w3.org/2000/svg">
<path fill-rule="evenodd" clip-rule="evenodd" d="M35.2185 15.3013L49.4435 29.5296L43.2739 48.0415L10.3716 57.8237L26.9674 41.228C27.9437 40.2516 27.9437 38.6687 26.9674 37.6924C25.9911 36.7161 24.4081 36.7161 23.4318 37.6924L7.34912 53.7751L17.7826 22.4803L35.2185 15.3013ZM17.855 22.2629C17.8549 22.2634 17.8548 22.2638 17.8546 22.2642L17.855 22.2629ZM0.471362 58.5959L13.1108 20.6841C13.111 20.6837 13.1111 20.6833 13.1113 20.6828C13.3151 20.0708 13.6482 19.5098 14.0879 19.0378C14.5279 18.5655 15.0643 18.1933 15.6608 17.9466L33.6186 10.5528C33.6183 10.5529 33.6189 10.5527 33.6186 10.5528C34.4398 10.2139 35.3437 10.1252 36.215 10.2987C37.0866 10.4722 37.8873 10.8999 38.5161 11.5278L53.1972 26.2123C53.1971 26.2121 53.1973 26.2124 53.1972 26.2123C53.788 26.8031 54.203 27.5471 54.3951 28.3603C54.5872 29.1736 54.5489 30.0244 54.2847 30.8173L47.9347 49.8706L47.9342 49.8722C47.7051 50.5579 47.3143 51.1783 46.7947 51.6809C46.2751 52.1835 45.6421 52.5536 44.9492 52.7597L6.02206 64.3332C5.23299 64.5675 4.39405 64.5812 3.59789 64.3722C2.8017 64.1633 2.07809 63.7399 1.50581 63.1483C0.933523 62.5567 0.534459 61.8194 0.352064 61.0167C0.169694 60.2142 0.211015 59.3767 0.471362 58.5959ZM49.6616 29.7478C49.6614 29.7475 49.6611 29.7472 49.6608 29.7469L49.6616 29.7478Z" fill="white"/>
<path d="M54.3421 2.60679L62.2221 10.4868C62.8143 11.0533 63.2873 11.7324 63.6134 12.4843C63.9395 13.2361 64.1122 14.0455 64.1213 14.865C64.1303 15.6844 63.9756 16.4975 63.6662 17.2563C63.3567 18.0152 62.8989 18.7046 62.3194 19.2841C61.7399 19.8635 61.0505 20.3214 60.2916 20.6309C59.5328 20.9403 58.7197 21.095 57.9003 21.086C57.0808 21.0769 56.2714 20.9042 55.5196 20.5781C54.7677 20.252 54.0886 19.7789 53.5221 19.1868L45.6388 11.3068C44.5269 10.1446 43.9142 8.59326 43.932 6.98496C43.9498 5.37665 44.5966 3.83924 45.7339 2.70193C46.8712 1.56462 48.4086 0.917817 50.0169 0.900035C51.6252 0.882252 53.1799 1.4949 54.3421 2.60679Z" fill="white" stroke="white" stroke-width="1.5" stroke-linecap="round" stroke-linejoin="round"/>
<path fill-rule="evenodd" clip-rule="evenodd" d="M27.6892 27.7149C28.5495 27.3629 29.4712 27.1858 30.4007 27.1939C31.3301 27.2019 32.2487 27.3951 33.1027 27.7619C33.9567 28.1288 34.7291 28.6621 35.3749 29.3306C36.65 30.6508 37.3555 32.4191 37.3396 34.2544C37.3236 36.0898 36.5874 37.8455 35.2896 39.1434C33.9917 40.4412 32.236 41.1774 30.4007 41.1933C28.5653 41.2093 26.7971 40.5037 25.4769 39.2286C24.8083 38.5829 24.275 37.8105 23.9082 36.9565C23.5413 36.1024 23.3482 35.1839 23.3401 34.2544C23.332 33.325 23.5091 32.4032 23.8611 31.5429C24.2131 30.6827 24.7328 29.9011 25.3901 29.2439C26.0473 28.5866 26.8289 28.0668 27.6892 27.7149ZM30.3659 31.1937C29.9676 31.1903 29.5725 31.2662 29.2038 31.417C28.8352 31.5678 28.5002 31.7906 28.2185 32.0723C27.9368 32.354 27.7141 32.6889 27.5632 33.0576C27.4124 33.4263 27.3365 33.8213 27.34 34.2197C27.3434 34.618 27.4262 35.0117 27.5834 35.3777C27.7406 35.7437 27.9692 36.0747 28.2557 36.3515C28.8215 36.8979 29.5793 37.2003 30.3659 37.1935C31.1525 37.1867 31.9049 36.8712 32.4612 36.3149C33.0174 35.7587 33.3329 35.0063 33.3397 34.2197C33.3466 33.4331 33.0442 32.6753 32.4977 32.1095C32.221 31.8229 31.8899 31.5944 31.5239 31.4372C31.1579 31.2799 30.7642 31.1972 30.3659 31.1937Z" fill="white"/>
</svg>
